<?xml version="1.0" standalone="no"?>
<!DOCTYPE svg PUBLIC "-//W3C//DTD SVG 20010904//EN"
 "http://www.w3.org/TR/2001/REC-SVG-20010904/DTD/svg10.dtd">
<svg version="1.0" xmlns="http://www.w3.org/2000/svg"
 width="269.000000pt" height="269.000000pt" viewBox="0 0 269.000000 269.000000"
 preserveAspectRatio="xMidYMid meet">
<metadata>
Created by potrace 1.11, written by Peter Selinger 2001-2013
</metadata>
<g transform="translate(0.000000,269.000000) scale(0.100000,-0.100000)"
fill="#000000" stroke="none">
<path d="M425 1717 c-11 -7 -22 -15 -25 -19 -3 -3 -5 -92 -5 -196 1 -162 4
-193 18 -216 15 -22 40 -32 70 -27 4 0 7 -3 7 -7 0 -5 -17 -9 -37 -9 -43 0
-143 -10 -188 -19 -16 -3 -34 -7 -40 -8 -5 -1 -16 -5 -22 -9 -10 -6 -12 30
-11 165 1 174 7 208 33 208 23 0 42 -40 49 -100 4 -30 9 -70 12 -88 8 -42 -10
-64 -50 -60 -32 3 -33 1 -27 -66 1 -12 16 -14 71 -12 38 1 71 4 73 6 30 37 33
53 26 107 -5 32 -11 81 -14 108 -20 164 -27 175 -123 179 -20 1 -54 -2 -75 -7
-62 -16 -67 -35 -67 -272 0 -113 -3 -204 -8 -203 -4 1 -23 -5 -43 -14 -26 -12
-38 -24 -42 -44 -3 -16 -4 -30 -2 -32 2 -2 21 6 44 17 49 26 51 26 51 2 0 -10
-9 -21 -19 -24 -24 -6 -49 -47 -29 -47 8 0 22 6 33 14 19 13 20 12 17 -35 l-4
-49 46 0 46 0 0 72 c0 39 3 69 6 65 3 -3 30 3 60 13 30 11 54 17 54 15 0 -3
11 0 26 5 14 6 42 12 62 15 20 3 51 7 67 11 42 8 250 8 308 1 130 -18 139 -19
133 -8 -4 6 -11 9 -15 7 -4 -3 -47 4 -97 16 -151 34 -320 27 -518 -22 -94 -24
-86 -23 -86 -6 0 14 77 39 160 51 25 4 54 10 65 12 59 15 324 8 381 -9 7 -1
13 2 15 7 1 6 -20 13 -47 17 -94 14 -169 21 -206 20 -21 0 -38 4 -38 9 0 5 5
8 12 7 14 -3 17 39 5 65 -4 10 -11 15 -15 13 -28 -17 -41 69 -33 217 1 11 9
17 26 17 14 0 26 5 26 10 1 6 2 16 3 23 4 22 -14 47 -34 47 -20 0 -24 12 -20
58 1 17 -4 22 -22 21 -13 0 -32 -6 -43 -12z"/>
<path d="M809 1720 c-1 -5 -2 -16 -3 -22 -4 -26 14 -34 56 -29 24 3 42 9 41
14 -2 4 -3 16 -3 27 0 17 -7 20 -45 20 -25 0 -46 -4 -46 -10z"/>
<path d="M957 1718 c-9 -30 5 -48 39 -48 19 0 37 -1 42 -2 4 -2 8 12 10 30 3
32 3 32 -42 32 -26 0 -46 -5 -49 -12z"/>
<path d="M615 1640 c-11 -4 -29 -17 -39 -29 -17 -18 -19 -37 -18 -152 0 -77 6
-143 12 -160 15 -34 50 -46 135 -45 l60 1 2 38 c2 36 1 37 -32 37 -19 0 -36
-1 -37 -2 -2 -1 -13 4 -25 10 -19 11 -21 19 -20 104 0 51 4 101 9 110 5 12 23
18 56 20 47 3 47 3 47 38 l0 35 -65 1 c-36 1 -74 -2 -85 -6z"/>
<path d="M808 1638 c-3 -11 -2 -340 1 -374 1 -6 21 -10 47 -10 l46 1 -1 185
c0 102 0 191 -1 198 0 8 -16 12 -44 12 -26 0 -45 -5 -48 -12z"/>
<path d="M964 1638 c-4 -6 -7 -95 -7 -197 1 -173 -6 -229 -26 -216 -13 7 -19
-54 -7 -64 11 -8 40 -8 80 1 40 9 45 42 46 271 l0 217 -39 0 c-22 0 -43 -5
-47 -12z"/>
<path d="M1132 1551 c-10 -6 -10 -22 -3 -75 2 -14 51 38 51 55 0 18 -31 31
-48 20z m28 -27 c0 -8 -4 -12 -10 -9 -5 3 -10 10 -10 16 0 5 5 9 10 9 6 0 10
-7 10 -16z"/>
<path d="M1196 1553 c-10 -10 -7 -83 4 -83 6 0 10 8 10 18 1 16 1 16 11 0 17
-29 28 -20 25 19 -3 26 -10 39 -24 44 -11 4 -23 5 -26 2z m28 -28 c-4 -8 -8
-15 -10 -15 -2 0 -4 7 -4 15 0 8 4 15 10 15 5 0 7 -7 4 -15z"/>
<path d="M1273 1553 c-8 -3 -13 -21 -13 -44 0 -36 2 -39 28 -39 24 1 25 2 10
14 -10 7 -18 16 -18 19 0 3 8 8 18 10 16 4 16 5 0 6 -10 0 -18 5 -18 10 0 5 8
11 18 13 14 3 14 5 2 9 -8 3 -21 4 -27 2z"/>
<path d="M1333 1553 c-15 -5 -18 -83 -3 -83 6 0 10 5 10 12 0 9 3 9 12 0 17
-17 26 -15 31 6 4 16 5 16 6 0 2 -36 21 -16 21 22 0 30 -4 40 -16 40 -9 0 -19
-10 -22 -22 -6 -23 -6 -23 -16 3 -6 14 -17 24 -23 22z"/>
<path d="M1429 1541 c-4 -55 -1 -76 8 -67 11 11 13 75 2 82 -5 3 -10 -4 -10
-15z"/>
<path d="M1553 1553 c-15 -6 -18 -83 -3 -83 6 0 10 5 10 11 0 8 4 8 14 0 11
-10 17 -8 25 6 10 17 10 17 11 1 0 -10 5 -18 10 -18 6 0 10 20 10 45 0 35 -3
43 -15 39 -8 -3 -17 -15 -21 -27 -6 -20 -7 -20 -18 5 -6 14 -17 23 -23 21z"/>
<path d="M1690 1550 c-14 -4 -20 -8 -13 -9 6 -1 13 -16 15 -33 2 -18 7 -32 13
-30 5 1 8 16 7 32 -2 17 1 30 7 30 6 0 11 5 11 10 0 11 -5 11 -40 0z"/>
<path d="M1778 1552 c-9 -21 -1 -76 11 -80 10 -3 12 0 8 12 -4 9 -2 16 3 16 6
0 10 -7 10 -15 0 -8 5 -15 10 -15 6 0 10 5 10 11 0 8 5 8 15 -1 8 -7 16 -11
16 -9 5 15 7 57 3 71 -6 20 -34 13 -34 -8 0 -8 -4 -14 -10 -14 -5 0 -10 6 -10
14 0 15 -27 30 -32 18z"/>
<path d="M1893 1553 c-8 -3 -13 -21 -13 -44 0 -35 2 -39 26 -39 14 0 23 4 19
10 -4 6 -11 8 -16 5 -5 -4 -9 1 -9 9 0 8 8 17 18 19 16 4 16 5 0 6 -10 0 -18
5 -18 10 0 5 8 11 18 13 14 3 14 5 2 9 -8 3 -21 4 -27 2z"/>
<path d="M2057 1547 c-23 -19 -27 -45 -11 -62 17 -17 54 -20 54 -5 0 6 -3 9
-7 9 -25 -4 -34 3 -31 24 2 12 8 22 15 22 19 0 25 12 9 18 -8 3 -21 0 -29 -6z"/>
<path d="M2123 1552 c-12 -8 -16 -25 -14 -59 1 -18 7 -23 29 -22 16 1 20 3 10
6 -10 2 -18 11 -18 18 0 7 8 16 18 18 16 4 16 5 0 6 -10 0 -18 5 -18 10 0 5 8
11 18 13 15 3 15 4 1 10 -9 3 -21 3 -26 0z"/>
<path d="M2177 1553 c-13 -12 -8 -85 6 -80 6 2 11 13 9 23 -3 16 -1 16 13 -3
23 -33 35 -28 35 12 0 24 5 35 15 35 11 0 14 -9 13 -32 -2 -18 2 -33 10 -35 8
-3 12 7 12 32 0 25 4 35 13 32 6 -2 12 -15 12 -29 0 -15 3 -30 8 -34 4 -4 7 1
7 12 1 18 1 18 14 2 7 -10 16 -18 18 -18 8 0 8 80 0 81 -44 5 -100 3 -114 -3
-10 -5 -18 -3 -21 5 -3 6 -6 -1 -7 -18 l-1 -30 -15 28 c-16 29 -17 30 -27 20z
m173 -23 c0 -5 -5 -10 -11 -10 -5 0 -7 5 -4 10 3 6 8 10 11 10 2 0 4 -4 4 -10z"/>
<path d="M2399 1549 c-8 -4 -14 -24 -14 -44 -1 -30 2 -35 22 -35 13 0 23 5 23
11 0 5 -4 8 -9 4 -5 -3 -12 -1 -16 4 -3 5 2 14 11 19 15 8 14 10 -2 17 -17 7
-16 8 6 14 19 5 21 8 9 13 -9 3 -22 2 -30 -3z"/>
<path d="M2484 1546 c-8 -21 0 -67 11 -65 6 0 9 5 8 10 -2 4 7 14 19 20 18 10
20 9 15 -5 -9 -24 36 -44 58 -26 23 19 15 61 -13 71 -17 7 -27 4 -40 -11 -17
-21 -42 -27 -42 -10 0 6 8 10 18 10 14 0 15 2 2 10 -21 13 -30 12 -36 -4z
m102 -21 c4 -8 3 -22 0 -31 -5 -13 -9 -14 -20 -5 -11 10 -14 26 -7 49 3 8 23
-1 27 -13z"/>
<path d="M2633 1551 c-13 -8 -15 -81 -3 -81 6 0 10 8 10 18 1 16 1 16 14 0 19
-26 23 -22 23 21 0 39 -20 58 -44 42z m27 -21 c0 -5 -4 -10 -10 -10 -5 0 -10
5 -10 10 0 6 5 10 10 10 6 0 10 -4 10 -10z"/>
<path d="M1460 1526 c0 -40 11 -56 36 -56 13 0 25 3 25 8 9 56 8 73 -4 69 -6
-2 -12 -15 -12 -28 0 -37 -20 -38 -23 -1 -4 37 -22 44 -22 8z"/>
<path d="M1740 1510 c0 -22 5 -40 10 -40 6 0 10 18 10 40 0 22 -4 40 -10 40
-5 0 -10 -18 -10 -40z"/>
<path d="M1940 1531 c0 -10 7 -21 15 -25 8 -3 15 -10 15 -16 0 -6 -4 -9 -9 -5
-5 3 -12 1 -16 -5 -7 -11 15 -13 39 -4 20 8 20 18 -1 39 -14 14 -14 18 -2 26
10 6 7 9 -13 9 -21 0 -28 -5 -28 -19z"/>
<path d="M1407 1423 c-4 -3 -32 -5 -62 -4 -49 1 -56 -1 -64 -21 l-8 -23 -7 23
c-10 30 -63 28 -58 -2 2 -11 -1 -15 -7 -11 -6 3 -11 13 -11 21 0 8 -7 14 -15
14 -11 0 -15 -11 -15 -40 0 -38 20 -60 20 -22 1 16 2 16 15 -2 18 -23 38 -11
31 19 -10 39 11 38 24 0 6 -19 17 -35 25 -35 12 0 31 44 27 63 -1 4 3 7 9 7 6
0 9 -14 7 -32 -3 -30 -1 -33 27 -35 17 -1 22 1 13 3 -21 6 -24 30 -5 37 10 4
10 6 0 6 -16 1 -17 21 -2 21 12 0 59 -46 59 -57 0 -3 -7 -3 -15 1 -8 3 -15 1
-15 -4 0 -15 36 -12 50 4 9 12 7 18 -9 33 -19 16 -20 18 -4 24 10 3 12 8 6 12
-6 4 -13 4 -16 0z"/>
<path d="M1770 1386 c0 -25 5 -46 10 -46 6 0 10 18 10 39 0 22 -4 43 -10 46
-6 4 -10 -12 -10 -39z"/>
<path d="M1886 1422 c-3 -3 -6 -23 -6 -44 0 -35 2 -38 28 -38 23 1 24 2 10 11
-10 5 -18 14 -18 19 0 6 8 10 18 11 15 0 14 1 -3 8 -18 7 -18 8 -1 18 17 10
17 10 -2 15 -12 3 -23 3 -26 0z"/>
<path d="M2540 1422 c-27 -9 -29 -26 -7 -51 18 -20 19 -23 5 -18 -10 4 -18 2
-18 -3 0 -16 40 -11 47 5 3 9 -2 24 -12 34 -16 18 -15 19 2 23 10 2 14 6 8 9
-5 4 -17 4 -25 1z"/>
<path d="M1124 1385 c3 -46 19 -46 22 0 1 23 -2 35 -11 35 -8 0 -12 -12 -11
-35z"/>
<path d="M1448 1413 c6 -2 12 -20 12 -39 0 -19 5 -34 10 -34 6 0 10 13 10 28
0 15 5 33 12 40 9 9 4 12 -22 11 -19 0 -29 -3 -22 -6z"/>
<path d="M1510 1380 c0 -22 4 -40 9 -40 5 0 9 18 9 40 0 22 -3 40 -9 40 -5 0
-9 -18 -9 -40z"/>
<path d="M1547 1413 c-11 -11 -8 -48 5 -61 20 -20 58 -15 58 7 0 21 -26 36
-35 21 -4 -6 -1 -10 4 -10 6 0 11 -4 11 -10 0 -5 -7 -7 -16 -3 -23 9 -13 46
16 54 24 7 23 7 -6 8 -17 1 -34 -2 -37 -6z"/>
<path d="M1631 1384 c-11 -40 -6 -58 9 -34 8 13 13 13 31 2 27 -17 29 -14 15
28 -16 49 -42 51 -55 4z"/>
<path d="M1708 1413 c6 -2 12 -20 12 -39 0 -19 5 -34 10 -34 6 0 10 15 10 34
0 19 6 37 13 39 6 3 -4 5 -23 5 -19 0 -29 -2 -22 -5z"/>
<path d="M1804 1403 c2 -10 7 -28 11 -40 8 -27 32 -30 39 -5 2 9 7 27 11 40 4
12 2 22 -4 22 -5 0 -13 -10 -17 -22 l-7 -23 -10 23 c-12 26 -31 30 -23 5z"/>
<path d="M1989 1413 c-1 -5 0 -16 1 -26 1 -10 -4 -25 -11 -34 -11 -13 -10 -15
6 -12 15 3 21 14 23 42 2 21 -1 37 -7 37 -6 0 -12 -3 -12 -7z"/>
<path d="M2024 1395 c-7 -29 10 -55 36 -55 26 0 43 26 36 55 -5 20 -13 25 -36
25 -23 0 -31 -5 -36 -25z m50 0 c6 -17 -2 -45 -14 -45 -5 0 -11 9 -15 20 -11
33 16 57 29 25z"/>
<path d="M2110 1385 c0 -39 21 -55 49 -38 18 11 25 76 7 70 -6 -2 -10 -16 -9
-30 1 -18 -3 -27 -12 -27 -10 0 -15 10 -15 30 0 17 -4 30 -10 30 -5 0 -10 -16
-10 -35z"/>
<path d="M2190 1381 c0 -39 20 -61 20 -23 1 16 1 16 14 0 19 -26 23 -22 22 20
-2 32 -5 37 -29 40 -25 3 -27 1 -27 -37z m35 19 c3 -5 1 -10 -4 -10 -6 0 -11
5 -11 10 0 6 2 10 4 10 3 0 8 -4 11 -10z"/>
<path d="M2260 1380 c0 -41 19 -58 21 -17 l0 22 11 -22 c18 -37 38 -28 38 17
0 38 -20 60 -20 23 -1 -17 -1 -17 -14 0 -22 29 -36 20 -36 -23z"/>
<path d="M2351 1384 c-13 -37 -7 -60 9 -34 8 13 13 13 31 2 28 -18 30 -14 12
31 -19 47 -35 47 -52 1z"/>
<path d="M2428 1403 c-2 -10 -2 -28 0 -40 4 -18 11 -23 37 -23 37 0 43 9 37
52 -6 40 -22 35 -22 -7 0 -24 -5 -35 -15 -35 -10 0 -15 11 -15 35 0 36 -16 49
-22 18z"/>
<path d="M2580 1380 c0 -41 20 -58 21 -17 l0 22 9 -22 c11 -27 27 -30 33 -5 4
16 5 16 6 0 2 -34 19 -18 23 22 3 32 0 40 -13 40 -9 0 -21 -10 -27 -22 l-11
-23 0 23 c-1 15 -7 22 -21 22 -17 0 -20 -7 -20 -40z"/>
<path d="M830 1199 c0 -5 5 -7 10 -4 6 3 10 8 10 11 0 2 -4 4 -10 4 -5 0 -10
-5 -10 -11z"/>
<path d="M868 1193 c7 -3 16 -2 19 1 4 3 -2 6 -13 5 -11 0 -14 -3 -6 -6z"/>
</g>
</svg>
